<?xml version="1.0" encoding="utf-8"?><svg xmlns="http://www.w3.org/2000/svg" xmlns:xlink="http://www.w3.org/1999/xlink"><symbol viewBox="0 0 31.74 31.74" id="favicon" xmlns="http://www.w3.org/2000/svg"><circle cx="15.87" cy="15.87" r="15.37"/><path d="M21.68 27.03c-8.48 0-15.36-6.88-15.35-15.37 0-3.96 1.54-7.77 4.28-10.63C2.39 3.91-1.94 12.91.94 21.13c2.88 8.22 11.88 12.55 20.1 9.67 2.91-1.02 5.45-2.87 7.32-5.32a15.156 15.156 0 01-6.68 1.55z"/><circle cx="23.68" cy="6.65" r="1.43"/><circle cx="26.9" cy="13.39" r=".94"/><circle cx="20.71" cy="21.83" r=".47"/><circle cx="15.29" cy="11.41" r=".94"/><circle cx="8.19" cy="8.3" r=".47"/><circle cx="13.94" cy="4.06" r=".7"/><g clip-path="url(#clippath)"><path d="M6.63 9.7c-.02.07-.03.14-.03.21 0 .23.4 1.17.61 1.46.43.61 1.32 1.29 2 1.54s.63.15-.35-.6c-.9-.69-1.23-1.01-1.44-1.39s-.44-.96-.39-1.01c.11-.12 1.71.54 2.31.96.57.39.9.87 1 1.42l.06.29v-.35c-.01-.27-.05-.42-.2-.7-.34-.64-.92-1.11-2.06-1.65-.59-.28-.65-.29-1.05-.28-.34.01-.43.03-.46.11zm4.8 2.51c-.26.06-.85.26-.85.29 0 .01.36 0 .8-.04.86-.07 1.36 0 1.83.21.5.23 1.46.82 1.56.97.15.2.18.98.05 1.2-.08.13-.08.15 0 .14.13 0 .3-.46.32-.86.01-.26 0-.38-.1-.54-.14-.25-.52-.5-.82-.53-.16-.02-.32-.1-.52-.27-.35-.31-.9-.54-1.4-.6-.43-.05-.49-.05-.88.03zm-5.71.82c-.23.07-.45.17-.67.29-.56.31-1.24 1.15-1.22 1.52 0 .05.07.16.15.23.26.25.96.15 1.81-.24.64-.29 1.14-.39 2.32-.44.6-.03 1.04-.06.98-.08-.23-.07-1.51-.12-1.95-.06-.65.08-.96.16-1.5.41-.56.26-1.18.39-1.41.31-.24-.08-.22-.28.08-.7.58-.83 1.29-1.18 2.53-1.22.73-.03 1.47.05 2.18.25.25.07.43.1.41.08-.04-.06-.64-.23-1.26-.36-.65-.14-1.98-.13-2.45 0zm5.46.75c-.09.05-.17.12-.24.19l-.13.15.15.09c.21.13.46.16.6.08.16-.09.27-.47.16-.54-.1-.06-.39-.04-.54.03zm-1.63 1.41c.08.55.42 1.03.86 1.24.19.09.34.11.73.1.42-.02.54-.04.85-.2.19-.1.35-.19.33-.2s-.18.02-.37.08c-.42.13-1.05.16-1.31.06-.35-.13-.64-.42-.89-.9l-.24-.45.04.28zm4.79.01c-.08.24-.31.42-.65.49-.43.09-.43.15.01.14.36-.01.43-.03.58-.17.19-.16.27-.44.18-.59-.04-.07-.07-.04-.12.13zm-3.6 2.06c-.08.56-.62 1.39-1.34 2.08-.37.36-.81.72-1.8 1.5-.7.55-1.23 1.31-1.59 2.3-.19.51-.37 1.28-.29 1.28.03 0 .05-.04.05-.08 0-.12.58-1.38.83-1.78.33-.55.92-1.18 1.45-1.57 1.77-1.29 2.87-2.78 2.77-3.73l-.03-.25-.04.25zm3.65-.03c.39.4.68.88.85 1.42.13.44.18 1.41.09 1.93-.08.44-.06.52.06.21.55-1.46.08-3.13-1.07-3.77-.28-.16-.27-.13.07.21zm1.92 4.16c.24.43.58 1.34.6 1.59.03.29-.08.46-.38.61-.21.1-.46.07-.64-.09-.16-.13-.18-.06-.04.12.15.2.53.26.82.13.49-.21.58-.61.3-1.33-.17-.42-.65-1.23-.73-1.23-.03 0 0 .1.07.21zm-1.48.16c.47 1.55.48 1.58.35 2.04-.15.56-.43.81-.83.75-.27-.04-.4-.23-.33-.5.02-.12.03-.2 0-.18-.09.06-.14.41-.08.57.08.2.49.35.78.28.47-.1.79-.78.71-1.48-.04-.41-.36-1.28-.54-1.49q-.09-.1-.06 0zm-5.31 1.16s.1.07.21.11c.34.1 1.07.59 1.37.89.56.58.82 1.23.91 2.26.03.4.08.69.11.66.07-.08.19-.82.18-1.17a2.87 2.87 0 00-1.96-2.61c-.35-.12-.81-.2-.81-.14zm4.01 1.04c-.27.15-.51.44-.7.82-.09.19-.14.34-.11.33.09-.04 1.02-1.13 1.02-1.2s0-.07-.2.05zm-9.32 1.02c-.51.11-.93.44-1.08.85-.43 1.15.43 2.65 1.48 2.61.22 0 .6-.15.6-.22 0-.01-.13 0-.28.02-.4.05-.56 0-.89-.28-.52-.44-.8-1.28-.65-1.91.13-.57.72-.95 1.49-.98.2 0 .32-.04.29-.06-.08-.07-.66-.09-.96-.03zm9.15.26c-.04.81-.22 1.34-.61 1.82-.14.18-.15.21-.06.21.06 0 .08.01.04.03-.2.08 0 .12.73.12.97 0 1.35.07 1.59.25l.18.14v-.17c-.02-.22-.3-.48-.63-.57s-1.1-.04-1.46.08c-.15.05-.3.1-.31.1.07-.06.13-.12.21-.17.63-.45.82-1.34.47-2.06l-.12-.25-.02.46zm-1.39 2.57c-.19.04-.39.09-.57.15l-.26.09.61.02c1.44.05 1.93.13 2.2.35.3.26.24-.05-.06-.32-.13-.11-.29-.19-.46-.24-.34-.1-1.04-.12-1.46-.04zm-4.54 1.09c.32.16.74.22 1.4.18.47-.03.78 0 1.37.09.86.15 1.71.16 2.25 0 .18-.05.34-.11.35-.12s-.32-.02-.74 0c-.52.03-1.04-.01-1.55-.11-.71-.13-.89-.14-1.86-.1-.59.02-1.15.02-1.25 0-.17-.04-.17-.03.03.06z" opacity=".3"/></g></symbol></svg>