<svg id="レイヤー_1" data-name="レイヤー 1" xmlns="http://www.w3.org/2000/svg" viewBox="0 0 280.05 199.75">
<style>.rabbit{opacity:0.9;fill:rgb(0,0,0)};}</style>
<path class="rabbit" d="M55.66,9.26c-5.4,3.7-5.6,13.4-.5,25.5,3,7.3,13,24,14.3,24,.4,0-1.3-4.7-3.7-10.5-8.2-19.4-10.2-28.8-7.1-33.1,1.4-1.8,1.5-1.8,4.6,1.1a39.9,39.9,0,0,1,6.2,8.2c4.2,7.4,5.2,7.7,4.5,1.5C72.46,13.26,62.66,4.26,55.66,9.26Z" transform="translate(-18.74 -7.85)"/>
<path class="rabbit" d="M96.76,17.66c-8.7,5.3-15.3,19-19.5,40.8-3.4,17.5-2.4,18.2,2,1.7,5.5-20.7,12.9-34.8,19.9-38.3,2-1,4.2-1.6,4.9-1.4,3.7,1.4-1.6,33.1-8.4,50-2.5,6.3-4.4,11.6-4.1,11.9.9,1,10.6-13.6,12.6-19,2.5-6.8,6.1-28.1,6.1-36.5s-1.6-11.1-6.8-11.1A14.07,14.07,0,0,0,96.76,17.66Z" transform="translate(-18.74 -7.85)"/>
<path class="rabbit" d="M233.26,67.36c-3.4,2.4-4.9,4.5-5,6.7,0,1.7.2,1.7,2.6-.2,4.7-3.7,9.2-4.3,17.2-2.3,4,1,7.2,1.5,7.2,1s-1.8-2-4.1-3.5C245.86,65.56,237,64.76,233.26,67.36Z" transform="translate(-18.74 -7.85)"/>
<path class="rabbit" d="M57.46,83.46c-7,6.9-11.6,13.6-13.2,19.2-1,3.7.1,4.1,2.3.8.8-1.3,5.6-7.5,10.6-14s9.1-11.9,9.1-12.2C66.26,75.56,63.46,77.56,57.46,83.46Z" transform="translate(-18.74 -7.85)"/>
<path class="rabbit" d="M100.26,82.56c0,1.1,4.9,5.7,7.8,7.1,3.4,1.8,2.7.8-2.8-3.8C102.56,83.56,100.26,82.06,100.26,82.56Z" transform="translate(-18.74 -7.85)"/>
<path class="rabbit" d="M138.26,89.66c-1.7.5.6,1,7,1.4a309.21,309.21,0,0,1,44.1,7.2c10.2,2.6,19.7,3.2,23,1.5,2.9-1.6,2.4-3.1-.7-2-2.8,1.1-10,.2-19.1-2.5C176.06,90.56,146.16,87.46,138.26,89.66Z" transform="translate(-18.74 -7.85)"/>
<path class="rabbit" d="M246.76,95.86c5.4,6.4,6.9,10.8,7.5,21.4l.6,10,2.2-4.5c4.5-9.3,1.5-21.8-6.6-27.4C245.26,91.76,243.46,92.06,246.76,95.86Z" transform="translate(-18.74 -7.85)"/>
<path class="rabbit" d="M72,95.56a6,6,0,0,0-1.7,3.4c0,1.8,5.3,4.3,7.4,3.5s4.9-5.5,4.2-7.2C81.06,93.06,74,93.26,72,95.56Z" transform="translate(-18.74 -7.85)"/>
<path class="rabbit" d="M39.86,116.36c-2.8,7.2,5,15.7,17,18.5,5.1,1.2,12.4.6,12.4-1,0-.5-1.8-1.1-4-1.5-9.2-1.5-23-10.3-23-14.7C42.26,115.26,40.66,114.36,39.86,116.36Z" transform="translate(-18.74 -7.85)"/>
<path class="rabbit" d="M91.86,136.56a80.68,80.68,0,0,1,8.6,5.4c4.1,3.2,5,3.5,4.1,1-1.6-4.6-9-9.2-14.8-9.1C87,133.86,87.06,134,91.86,136.56Z" transform="translate(-18.74 -7.85)"/>
<path class="rabbit" d="M248,135a34.41,34.41,0,0,0,6.5,4.4c4.8,2.6,6.1,2.9,13.6,2.7,8.3-.2,8.3-.2,10,2.7,2.1,3.7,3.4,3.9,2.6.2-1.2-5.1-3.7-6.3-12.4-5.6-7.2.6-8.2.5-13.6-2.2-3.3-1.5-6.3-3-6.9-3.3S247.36,134.06,248,135Z" transform="translate(-18.74 -7.85)"/>
<path class="rabbit" d="M205.56,140.46c-2.2,5.3-2.8,15.2-1.3,19.8,3.9,12,22.9,21.3,37.8,18.6,7.1-1.4,16.8-6,20.6-10,1.7-1.7,2.5-3.1,1.9-3.1a3.44,3.44,0,0,0-2.2,1.4c-.6.7-4.4,2.8-8.3,4.7-6.7,3.1-8.1,3.4-16.8,3.4-8.4,0-10.2-.3-15.7-2.9-12.1-5.6-17.3-14.7-15.3-26.7a42.52,42.52,0,0,1,1.5-7.2C209.16,135,207.16,136.86,205.56,140.46Z" transform="translate(-18.74 -7.85)"/>
<path class="rabbit" d="M197.26,152.86c-4.4,3.7-15.5,8.7-21.8,9.9-4.9.8-7.9.8-14.4-.4-8.8-1.5-14.2-1.1-19.3,1.6-3.5,1.9-8.4,6.8-6.7,6.8a2.33,2.33,0,0,0,1.7-1,17.59,17.59,0,0,1,4.5-3c4.8-2.4,11.4-2.6,20.6-.4,5.5,1.2,8,1.3,12.9.5,8.1-1.5,17.1-6,22.5-11.5C201.76,150.66,201.76,149.16,197.26,152.86Z" transform="translate(-18.74 -7.85)"/>
<path class="rabbit" d="M60.66,161.56c-12.7,8.1-23,13.3-30.1,15.1-11,2.9-15.7,14.2-8.1,19.5,4.3,3,18.6,1.9,28.1-2.1,5.2-2.3,4.6-3.2-1.1-1.7-13.3,3.4-25.4,2.6-26.5-1.8s5.1-10.8,10.5-10.8c4.1,0,21.4-10.4,34.8-20.9,6.4-5,6.5-5.1,5.5-5.1C73.16,153.86,67.26,157.26,60.66,161.56Z" transform="translate(-18.74 -7.85)"/>
<path class="rabbit" d="M103.86,167.76c-4.3,10.5-8.6,16.6-14.4,20.5-6.3,4.3-8.4,7.3-8,11.6.9,9.7,20.2,10.5,29.4,1.2,3.8-3.8,3.9-6,.1-2.6a23.3,23.3,0,0,1-20.1,5.3c-8.7-1.9-8.4-6.2.8-12.6,6.2-4.3,9.5-9.6,14-22.2,2.9-8.1,2.9-8.2,1.9-8.2C107.06,160.76,105.46,163.86,103.86,167.76Z" transform="translate(-18.74 -7.85)"/>
<path class="rabbit" d="M279.76,171.46c1.2,9.6,8.6,24.2,13.8,27.3,5.9,3.6,7,2.4,2.3-2.3-2.8-2.9-6.4-8.6-10.5-16.8C280.06,169.06,279.26,167.86,279.76,171.46Z" transform="translate(-18.74 -7.85)"/>
<path class="rabbit" d="M262.26,180.26c0,4.2,4.3,13,7.4,15.1s4.6,1.1,2.2-1.5a69.45,69.45,0,0,1-5.7-9.3C262.86,178.26,262.36,177.66,262.26,180.26Z" transform="translate(-18.74 -7.85)"/></svg>