<svg id="レイヤー_1" data-name="レイヤー 1" xmlns="http://www.w3.org/2000/svg" viewBox="0 0 314.92 220.34">
<style>.rabbit{opacity:0.9;fill:rgb(0,0,0)};}</style>
<path class="rabbit" d="M121.67,7.59c-7.2,3.5-21.3,22.1-34.7,45.8-7.9,13.9-17.9,34.4-17.1,35.2.3.3,9.3-12.8,20.1-29.1,26.2-39.5,32.8-47.6,38.8-47.6,2.5,0,4.8,2.5,5.7,6.3,1.9,8.6-3.8,21.2-14.8,32.9-3.5,3.7-6,6.8-5.4,6.8,2.1,0,13.4-10.3,17.7-16.1,10-13.5,11.2-27.3,3-33.7C131.67,5.49,126.37,5.29,121.67,7.59Z" transform="translate(-7.47 -6)"/>
<path class="rabbit" d="M174,38.19c-14.1,5.7-37.8,20.9-58.1,37.2-11,8.8-21.6,18.6-21,19.2s3.2-1,39.1-23.1c28.6-17.6,44.3-26.1,49.9-27.2,11.8-2.2,12.5,9.4,1.3,20.6-5.9,5.9-14.9,11.5-25.1,15.7-8.2,3.3-6.4,4.3,3.3,1.8,18.2-4.7,33.2-15.6,36.6-26.7,2.9-9,.2-16.4-7.1-19.4C187.67,34.09,182.67,34.69,174,38.19Z" transform="translate(-7.47 -6)"/>
<path class="rabbit" d="M199.47,99.39c-24.2,2.9-51.4,10-78.4,20.4-1.6.7-2.6,1.4-2.3,1.7s4.2-.6,8.7-2c29.5-9.3,69.4-16.6,91.2-16.6,17.9,0,36.3,4.4,48.8,11.7,7.7,4.6,17.4,14.1,19.1,18.8,1.4,3.8,3.5,4.9,2.4,1.2-2.9-9.5-12.7-19.9-24.6-26.2C246.07,98.79,226.57,96.09,199.47,99.39Z" transform="translate(-7.47 -6)"/>
<path class="rabbit" d="M69.87,99.89c-12.3,2.5-28.9,11.4-40.8,22.1-6.6,6-18.9,20-18.1,20.7.2.3,5.4-4.2,11.3-10A178.93,178.93,0,0,1,42.47,116c19.4-12.7,39.6-17.2,51.7-11.5,4.9,2.4,11.9,9.5,13.5,13.9.6,1.9,1.6,3.5,2,3.5,1.2,0,1-.7-1.9-6.7C101.27,102,87.57,96.39,69.87,99.89Z" transform="translate(-7.47 -6)"/>
<path class="rabbit" d="M60,125.89a13.39,13.39,0,0,0-4.3,3.3l-2.4,2.5,2.4,1.5c2.3,1.5,4.6,2,8,1.8,2-.1,4.4-3.4,5.3-7.4.7-2.6.6-2.7-3.1-2.6A17.82,17.82,0,0,0,60,125.89Z" transform="translate(-7.47 -6)"/>
<path class="rabbit" d="M309.47,135.59c-5.2,1.8-15,8-15,9.5,0,.6.7.7,1.8.3,7-3.1,14.8-5.5,17.2-5.5,4,0,3.9,2.1-.4,15-7.3,21.3-12.4,29.1-20.1,30.6-5.2.9-4.4,2.8,1,2.2,9.6-1.1,15.8-8.4,23.6-27.7,2.2-5.6,4.3-12.6,4.6-15.6.5-4.8.3-5.6-2-7.9C317.17,133.49,315.67,133.39,309.47,135.59Z" transform="translate(-7.47 -6)"/>
<path class="rabbit" d="M208,137.29c-10.3,3.3-17.7,9.5-21.9,18.5-1.8,3.9-2.1,6.4-2.1,16.8,0,7.7.4,12.6,1.1,13.3s1.3-1.7,1.6-9.7c.6-12.6,2.9-19.7,8.3-26.1,6.1-7.1,19.8-12.2,32.8-12.2,2.3,0,3.6-.4,3.2-1C230.07,135.49,212.77,135.79,208,137.29Z" transform="translate(-7.47 -6)"/>
<path class="rabbit" d="M7.47,152a18.92,18.92,0,0,0,2.2,5c2.1,3.8,6.8,6.9,10.5,6.9,1.2,0,2.6,1.3,3.6,3.6,2.1,4.4,6.6,6.4,14.4,6.4,8.7,0,9.7-1.6,1.7-2.4-8.3-.8-13-3-14.9-6.6a6.71,6.71,0,0,0-4.2-3.4,18.44,18.44,0,0,1-10-7.6C9,150.89,7.47,150,7.47,152Z" transform="translate(-7.47 -6)"/>
<path class="rabbit" d="M32.67,187c-20.8,2.7-29.5,12.3-20.6,22.9,2.8,3.2,10,6.4,13.5,5.8,2.1-.3,1.8-.6-2.1-2.4-6.1-2.8-10.2-7.7-9.8-11.8.5-4.6,6.2-8.1,19.1-11.3,5.9-1.6,10.7-3.1,10.7-3.5C43.47,185.79,41.37,185.79,32.67,187Z" transform="translate(-7.47 -6)"/>
<path class="rabbit" d="M159.57,191.89c-7.3,1.7-11.8,7.3-10.7,13.3.9,4.9,2.4,4.7,2.2-.2,0-2.1.6-4.6,1.4-5.6,2.1-2.6,8.6-5.2,14.8-6,2.8-.4,4.9-1.1,4.6-1.6C171.27,190.69,164.37,190.79,159.57,191.89Z" transform="translate(-7.47 -6)"/>
<path class="rabbit" d="M65,193.79c-7.9,2.3-13.5,5.3-17.5,9.3-8.3,8.2-7.8,19.6.9,22.6,4.2,1.5,4.5.4,1.1-3.5s-3.7-6-1-11.2c3.5-7,9.1-10.6,24-15.7L82,192h-5.5A48.1,48.1,0,0,0,65,193.79Z" transform="translate(-7.47 -6)"/>
</svg>
