<svg xmlns="http://www.w3.org/2000/svg" viewBox="0 0 600.22 294.36"><path fill="#E6E1E1" d="M309.96 1.84c-24 6.5-42.8 26.2-48.6 51-1 4.3-2.2 6.7-4 8.1-1.4 1.1-3.2 2.6-3.9 3.3s-5.3 1.6-10.4 2a107.71 107.71 0 00-17.01 2.82c-12.2 3.3-15.6 2.7-25.2-4-9.4-6.6-17.7-9.4-28.1-9.4-18.4 0-33.3 9.2-43.9 27-2.3 3.7-4.4 6.6-4.8 6.6a7.93 7.93 0 00-3.1.7 13.84 13.84 0 01-3.3.9c-.6 0-.7.5-.3 1.2s.2.9-1.2.4c-1-.4-5.7-1-10.4-1.3-25.7-1.6-48.8 13.3-57.6 37-1.3 3.4-2.3 5.9-2.3 5.5s-1.7.7-3.6 2.6a16.54 16.54 0 01-7.2 4.1 37.32 37.32 0 00-9.2 3.5c-32.1 16.3-34.9 61.6-5.1 82.3a58.26 58.26 0 0012.2 5.7c4.3 1.5 7.5 2.9 7.1 3.3-.5.6.4.9 2.3.6.3 0 1.8 1.7 3.1 3.8 8.3 12.4 23.5 22.7 44.7 30.2 31.2 11 77.1 12.3 111.7 3.1 7.9-2.1 10.6-2.4 7.4-.9-1.7.8-1.5.9.9.5a18.76 18.76 0 017 1.1 243.77 243.77 0 0027.6 7c6.2 1.2 14.3 1.7 30 1.7 18.5 0 23-.3 32.4-2.2 11.9-2.5 27.1-7.1 35.4-10.8 2.9-1.3 5-1.9 4.6-1.3s1.1.9 3.8.8c3.7-.2 5.4.4 10.7 4 12.7 8.7 29.3 15.4 47.6 19.3 14.3 3.1 41.7 3.1 56 0 27.6-5.9 47.9-16.6 66-34.7 5-4.9 9.2-9 9.5-9.1 1.9-.4 3.9-1.7 3.5-2.3-.2-.4 3.1-1.3 7.3-1.9 17.1-2.6 32.8-14.1 41-30 4.6-8.9 5.9-12.9 7.2-22.9 2.7-20.5-6.5-44-22.2-56.4-2.9-2.3-5.3-4.5-5.3-5a6.14 6.14 0 00-1.6-2.7c-.9-1-2.1-4.7-2.8-8.3a63 63 0 00-4.2-12.7c-3.4-6.9-12.8-17.6-19.6-22.4-14.6-10-34.6-15.8-54.4-15.8-4.4 0-6.8-.4-6.4-1s0-1-.7-1c-3.1-.1-6.6-4.9-8.2-11-4.9-19.1-20.9-34.1-42.1-39.5-13.1-3.3-32.5-1.5-45.4 4.4-3.3 1.4-5 1.7-6.4 1a7 7 0 00-4.1-.7c-1.5.2-3.9-1.1-7-3.8a69.2 69.2 0 00-22.8-13.1c-10.19-3.62-26.19-4.22-36.59-1.32z"/></svg>