<svg xmlns="http://www.w3.org/2000/svg" viewBox="0 0 1222.54 187.87"><defs><style>.cls-1{opacity:1}.cls-2{fill:#9f9dac}.cls-3{fill:#fff}</style></defs><g id="wheel" class="cls-1"><circle class="cls-2" cx="37.93" cy="160.94" r="25.82"/></g><g id="wheel2" class="cls-1"><circle class="cls-2" cx="102.59" cy="158.39" r="25.82"/></g><g id="wheel3" class="cls-1"><circle class="cls-2" cx="201.59" cy="158.39" r="25.82"/></g><g id="wheel3-2" data-name="wheel3" class="cls-1"><circle class="cls-2" cx="258.59" cy="158.39" r="25.82"/></g><g id="wheel4" class="cls-1"><circle class="cls-2" cx="317.59" cy="158.39" r="25.82"/></g><g id="wheel5" class="cls-1"><circle class="cls-2" cx="418.07" cy="163.91" r="21.3"/></g><g id="wheel6" class="cls-1"><circle class="cls-2" cx="480.64" cy="162.34" r="21.87"/></g><g id="wheel7" class="cls-1"><circle class="cls-2" cx="546.52" cy="164.32" r="20.89"/></g><g id="wheel8" class="cls-1"><circle class="cls-2" cx="607.24" cy="161.74" r="22.47"/></g><g id="wheel9" class="cls-1"><circle class="cls-2" cx="702.19" cy="161.79" r="23.42"/></g><g id="wheel10" class="cls-1"><circle class="cls-2" cx="764.83" cy="163.15" r="23.06"/></g><g id="wheel11" class="cls-1"><circle class="cls-2" cx="829.59" cy="161.39" r="23.06"/></g><g id="wheel12" class="cls-1"><circle class="cls-2" cx="892.59" cy="161.39" r="23.06"/></g><g id="wheel13" class="cls-1"><circle class="cls-2" cx="986.59" cy="162.39" r="23.06"/></g><g id="wheel14" class="cls-1"><circle class="cls-2" cx="1048.59" cy="160.39" r="23.06"/></g><g id="wheel15" class="cls-1"><circle class="cls-2" cx="1114.59" cy="163.39" r="23.06"/></g><g id="wheel16" class="cls-1"><circle class="cls-2" cx="1174.59" cy="161.39" r="23.06"/></g><path class="cls-3" d="M278.84 47.99h39.41v51.64h-39.41z" id="white-mini-window"/><path class="cls-3" d="M388.92 49.35h239.19v66.59H388.92z" id="white-window1"/><path class="cls-3" d="M673.28 48.07h239.19v66.59H673.28z" id="white-window2"/><path class="cls-3" d="M957 49.09h239.19v66.59H957z" id="white-window3"/><g id="train"><path d="M72.5 11.2c-.2.7-1.4 4.7-2.5 8.7l-2.2 7.5L71 39.2c1.8 6.5 3 12.5 2.6 13.3-.4 1-1.9 1.5-5.1 1.5-4.1 0-4.5.2-4.5 2.5V59H32.3l-8.6 18C18.9 86.8 15 95.1 15 95.4s5.4 4.7 12 10l11.9 9.6H269V49l-55.5-.2-55.5-.3V59h-49v-2.5c0-2.3-.4-2.5-4.5-2.5H100v-4.1c0-2.3 1.1-8.2 2.5-13.3l2.5-9.1-2.3-8.5-2.3-8.5-13.7-.3c-10.5-.2-13.8 0-14.2 1z" transform="translate(-10.9 -10.13)"/><path d="M390 98v51h-25v-48h-29V62l21.3-.2 21.2-.3.3-6.8.3-6.7H271v69.8l-116.1-.2-116.2-.1-10.1 18.7-10.1 18.7-3.8.1h-3.8l.3 4.7.3 4.8 3.8-.1 3.7-.1v4.8c0 10.7 6.6 20.6 17.4 26.3 4 2.1 6.3 2.6 12.2 2.6 4.1 0 7.4-.4 7.4-.8s1.6-1.4 3.6-2.1c8.8-3.2 16.1-13.5 17.1-24.4l.5-6.2 3.5.1 3.4.1.4 5.7c.6 10.6 8.3 21.6 17.2 24.8 1.8.7 3.3 1.6 3.3 2 0 1 16.7 1.1 17.2 0a16.66 16.66 0 014.3-2.7 28.54 28.54 0 0015.4-23.3l.6-6.3h40l.6 6.3a28.89 28.89 0 003.4 11.7c3 5.4 9.9 11.7 14.2 12.7 1.3.4 2.3 1 2.3 1.5s3.8.9 8.5.9 8.5-.4 8.5-.9 1-1.1 2.3-1.5c6.9-1.7 15.1-10.9 17.2-19.4l1.2-4.7.8 3.5c1.8 8.3 7.9 15.7 16.9 20.4 4.1 2.2 6.2 2.6 12.9 2.6 4.4 0 7.7-.3 7.4-.7s1-1.4 3.1-2.3c8.1-3.6 14.6-11.7 16.2-20 .7-3.7 1-3.3 2.9 3.7 1.5 5.5 8.9 13.6 14.6 16 2.5 1 4.5 2.1 4.5 2.5s3.9.8 8.7.8 8.3-.3 8-.6 1.5-1.7 4.1-2.9c9.4-4.3 16.2-15.3 16.2-25.9 0-4.1 0-4.1 3.6-4 2.8.2 3.8-.2 4.1-1.7.5-1.7 1.6-1.9 12.9-1.9 11.7 0 12.4.1 12.4 2s.7 2 9 2h9l-.7 2.7a27.06 27.06 0 001.7 16.8c2.3 4.8 8 10.2 11.8 11.1 1.2.4 2.2 1 2.2 1.5s3.2.9 7 .9c4 0 7-.4 7-1s.6-1 1.3-1c2.7 0 9.4-6.1 12.1-11.1 2.6-4.6 2.8-5.8 2.4-12.5l-.5-7.4H470l-.7 2.7c-1.3 4.7-.6 12.8 1.5 16.9a25.25 25.25 0 0022.3 13.4c3.2 0 5.9-.4 5.9-.9s1.3-1.4 2.9-2.1c4.4-1.8 9.8-7.7 11.7-12.6 1.2-3.2 1.5-6.2 1.2-10.9l-.6-6.5h20.6l-.6 6.5c-.3 4.7 0 7.7 1.2 10.9 1.9 4.9 7.3 10.8 11.7 12.6 1.6.7 2.9 1.6 2.9 2.1s3.4.9 7.6.9 7.3-.4 7-.9.5-1.2 1.9-1.5c3.6-.9 9.3-6.3 11.7-11 2.2-4.3 2.9-11.9 1.5-16.8l-.7-2.8h17.7l-.5 7c-.4 6.1-.1 7.6 2.2 12.4 2.6 5.3 9.3 11.6 12.3 11.6.7 0 1.3.4 1.3 1s3.2 1 7.7 1c4.2 0 7.4-.3 7-.6s1.3-1.6 3.6-2.8a24.25 24.25 0 0011.7-15.9c.6-2.9.9-6 .6-6.8s-.7-2.6-1-4.2c-.6-2.5-.4-2.7 2.9-2.7 2.8 0 3.5-.4 3.5-2 0-1.9.7-2 12.5-2s12.5.1 12.5 2 .7 2 9 2h9l-.6 2.8c-.3 1.5-.8 3.3-1 4.1-.9 2.8 1.7 11.9 4.6 15.8a25.34 25.34 0 007.7 6.4c2.7 1.3 5 2.7 5.1 3.1.5 1.1 12.2 1 12.2-.1 0-.5 1.2-1.2 2.6-1.5 3.9-1 11.1-8.3 13-13.2 1.2-3.2 1.5-6.2 1.2-10.9l-.6-6.5h17.5l-1 4.9c-2.7 13.8 9.5 28.1 24.1 28.1 2.9 0 5.2-.4 5.2-.9s1.2-1.2 2.6-1.5c3.9-1 11.1-8.3 13-13.2 1.2-3.2 1.5-6.2 1.2-10.9l-.6-6.5h20.6l-.5 6.4a30.89 30.89 0 00.7 10.1c1.6 5 7.5 11.4 12.5 13.6s14 2.4 18.9.4c9.6-4 15.8-15.6 13.9-25.6l-1-4.9h17.5l-.5 6.4c-.7 7.9.8 12.6 5.6 17.9 12.7 14.1 36.2 7.8 40.1-10.8.6-2.8.9-5.8.6-6.6s-.7-2.6-1-4.1c-.6-2.6-.4-2.8 2.9-2.8 2.8 0 3.5-.4 3.5-2 0-1.9.7-2 12.4-2s12.4.1 12.9 2.1 1.2 2 9 1.7l8.4-.3-.5 6.8c-.6 8.7 1.4 14.2 7.2 19.5 16.9 15.6 43.1 0 38.3-22.8l-.7-3.5h18l-.7 3.5a23.36 23.36 0 006.9 22.7 22.71 22.71 0 0031.4.1c5.8-5.3 7.8-10.8 7.2-19.5l-.5-6.8 10.6.2c8.1.2 10.5.5 10.2 1.5a26.19 26.19 0 00.9 16.6c7.5 17.5 31.4 19 41.5 2.8 2.5-4.2 3-5.9 3-11.5a68.35 68.35 0 00-.5-7.9c-.4-1 1.5-1.4 8.2-1.5l8.7-.2-.6 5.7c-.9 8.4 1.1 14.3 6.6 19.8 9.7 9.6 23.8 9.4 33.5-.6 5.7-5.9 7.9-16.2 5-23.8-.5-1.2.1-1.4 3-.9 3.2.5 3.6.3 3.6-1.6s.5-2.1 7.9-2.1 8.1-.2 10-2.7c2.3-2.8 2-5.9-.7-8.1-1-.7-4.7-1.2-9.4-1.2h-7.8V47H956v102h-25V47H673v102h-25V47H390zm-68-16.5V95h-18V68h18zm126 10V113h-36V71.1l15.3-.4c8.3-.1 16.4-.4 18-.5l2.7-.2zm62 0V113h-36V71.1l15.3-.4c8.3-.1 16.4-.4 18-.5l2.7-.2zm58 0V113h-36V71.1l14.8-.3c8.1-.2 16.2-.4 18-.6l3.2-.2zm58.3.3l.2 21.2H590V71.1l15.3-.3c8.3-.2 16.5-.3 18-.3h2.8zm104.7-.3V113h-36V71.1l5.8-.4c3.1-.2 11.2-.4 18-.5L731 70zm58 0V113h-36V71.1l5.8-.4c3.1-.2 11.2-.4 18-.5L789 70zm62 0V113h-36V71.1l5.8-.4c3.1-.2 11.2-.4 18-.5L851 70zm58 0V113h-36V71.1l5.8-.4c3.1-.2 11.2-.4 18-.5L909 70zm105 0V113h-36V70h36zm59 0V113h-37V70h37zm61 0V113h-36V70h36zm59 0V113h-37V70h37zm-811 61.4c1.3 2.5 1.3 2.7-.6 4.5-1.1 1.2-3.6 1.6-9 1.6H365v-8h8c6.8 0 8.1.3 9 1.9zm8 2.1c0 3.8-.1 4-3.2 4s-3.3-.2-3.3-4 .1-4 3.3-4 3.2.2 3.2 4zm275-2.1c1.3 2.5 1.3 2.7-.6 4.5-1.1 1.2-3.6 1.6-9 1.6H648v-8h8c6.8 0 8.1.3 9 1.9zm8 2.1c0 3.8-.1 4-3.2 4s-3.3-.2-3.3-4 .1-4 3.3-4 3.2.2 3.2 4zm275-2.5c1 1.2 1 2.1.2 4-1.1 2.4-1.6 2.5-9.2 2.5h-8v-8h7.9c5.8 0 8.2.4 9.1 1.5zm8 2.5c0 3.9-.1 4-3.5 4s-3.5-.2-2.5-2a3.63 3.63 0 000-4c-1-1.8-.8-2 2.5-2s3.5.1 3.5 4zm275.4-1.8a2.85 2.85 0 010 3.5c-.9 1.4-2.8 1.9-9.3 2.1l-8.1.3v-8.2l8.1.3c6.5.2 8.4.7 9.3 2zM42.3 168a5.37 5.37 0 001.2 5c3.9 4.3 10.1.9 9.3-5l-.5-3H73v4.7a24.3 24.3 0 01-2.4 9.8c-10.5 22.1-42.3 18.1-47.7-6.1-1.8-8.2-1.6-8.4 10-8.4H43zm8.7 1.5a2.88 2.88 0 01-2 3c-4.1 1.3-7-4.3-3.3-6.4a3.62 3.62 0 015.3 3.4zm57-2.6c-1.4 2.7.6 7 3.6 7.7 4.7 1.2 9.3-4.6 6.4-8.1-1.1-1.3.2-1.5 10-1.5h11.3l-.6 5.5c-.7 6.6-4.9 14.8-9.4 18.2-16.4 12.6-41.2 1.2-41.3-19V165h10.5c10.2 0 10.5.1 9.5 1.9zm8.6 1.3a3.49 3.49 0 01-4.5 4.3c-2.6-.8-2.9-5-.4-6.3 2.2-1.3 4.1-.5 4.9 2zm89.6-.2a6.09 6.09 0 001.3 5c3.9 4.3 10.1.9 9.3-5l-.5-3h21l-.6 6c-1.2 13.5-11.7 23-25.5 23S186 182.3 186 168.3V165h20.7zm8.8.9c0 2.8-2.8 4.7-4.8 3.4-2.4-1.5-2.7-4.4-.7-5.9a3.43 3.43 0 015.5 2.5zm49.2-.9c-.8 5.9 5.4 9.3 9.3 5a6.09 6.09 0 001.3-5l-.5-3H295v4.7c0 16.8-17.5 28.4-34.1 22.8-8.7-3-15.3-11.8-16.5-21.9l-.7-5.6h21zm8.8.9c0 2.8-2.8 4.7-4.8 3.4-2.4-1.5-2.7-4.4-.7-5.9a3.43 3.43 0 015.5 2.5zm50-2.4c-1.6 2-.5 6.2 2.1 7.6 4.8 2.5 10.3-2.5 7.9-7.2-1-1.8-.6-1.9 9.3-1.9 11.9 0 12.2.2 10.6 8.4-1.2 6.4-3.1 9.8-8.3 14.3a24.78 24.78 0 01-33.1.1c-5.6-4.9-8.5-10.9-8.5-17.6V165h10.6c9.3 0 10.5.2 9.4 1.5zm8 1.5c1.8 3.3-3.1 6.5-5.8 3.8-1.6-1.6-1.5-3.3.3-5.2s4.1-1.1 5.5 1.4zm117.9.1c4.5 13-6.5 26.8-20.5 25.7-12.8-1.1-21.8-14.7-17.4-26.2l1-2.6h35.8zm62.1 1.1c4 14.7-10.8 28.6-25.4 23.8-10.2-3.3-16.3-15.7-12.6-25.4l1-2.6h35.9zm65-1.6c1.6 4.1 1.1 11.2-1 15.3-3.8 7.6-11.4 11.7-20.1 10.9-11.5-1.1-20-13.4-16.9-24.7l1.1-4.1H575zm62 0c2.3 6 .4 15.2-4.3 20.3-3.1 3.4-9.5 6.1-14.5 6.1-13.2 0-23.4-13.6-19.1-25.9l1.1-3.1H637zm93.9.5c3.2 9.1-1.8 19.6-11.4 24-6.7 3.1-13.6 2.1-20.2-2.8-6-4.6-9-14.8-6.3-21.7l1-2.6h35.8zm62.1 1.1c2 7.2-.3 14.2-6.4 19.6a19.18 19.18 0 01-24.4 1.2c-6.7-4.8-10-15.1-7.2-22.4l1-2.6h35.9zm65-1.6c2.8 7.3-.5 17.6-7.2 22.4-14.7 10.7-35.5-3.4-30.8-20.8l1.1-4.2H858zm62 0c3.7 9.7-2.4 21.6-12.9 25.2-14.6 5.1-30.1-10.2-25-24.7l1.1-3.1H920zm94 0c2.6 6.7-.1 15.7-6.3 21.1a19.24 19.24 0 01-21.8 2.7c-3.7-1.9-8.5-7.6-9.9-11.9-1.1-3.5-.8-11.4.6-13.6.3-.5 8.6-.9 18.5-.9h17.9zm62.4 2.6c2.7 13.9-10.8 26.5-24.4 22.8-10.5-2.8-17.7-15.8-14-25.5l1-2.5 18.2.2 18.3.3zm65-3c4.1 15.6-8.8 29.5-24 25.7-6.6-1.7-12.8-7.9-14.2-14.3a32.25 32.25 0 01-.7-6.4c.2-.9.6-2.9 1-4.5l.5-2.7h18.4c18.2 0 18.4 0 19 2.2zm62 0c2.3 8.7-1.1 18.4-8.1 22.8-5.9 3.8-10.3 4.4-16.7 2.6-10-2.9-16.3-13.7-13.6-23.5l1.1-4.1h18.3c18.2 0 18.4 0 19 2.2z" transform="translate(-10.9 -10.13)"/><path d="M377.5 154a1.84 1.84 0 00.3 2.2 1 1 0 001.7-.2 1.84 1.84 0 00-.3-2.2 1 1 0 00-1.7.2zm283 0a1.84 1.84 0 00.3 2.2 1 1 0 001.7-.2 1.84 1.84 0 00-.3-2.2 1 1 0 00-1.7.2zm283 0a1.84 1.84 0 00.3 2.2 1 1 0 001.7-.2 1.84 1.84 0 00-.3-2.2 1 1 0 00-1.7.2zm283 0c-.8 1.3.4 3.2 1.6 2.5s1.2-3.5 0-3.5a1.9 1.9 0 00-1.6 1zm-800.3 16.6c-2.8 1.9-2.9 5.7-.2 8.4 2.4 2.4 3.8 2.5 6.7.5s3.4-5.1 1.1-8-4.4-3.2-7.6-.9zm5.2 1c2 .8 2.1 4.8.2 6.3-3.3 2.8-7.4-2.7-4.4-5.7 1.4-1.4 2-1.4 4.2-.6zm56.8-1a5.43 5.43 0 00.4 9.1c2.4 1.5 2.9 1.5 5.3.2a5.89 5.89 0 001.5-9c-2.1-2.3-4.2-2.4-7.2-.3zm5.6 1.6a3.53 3.53 0 01-4.1 5.7c-2.9-1.7-1.5-6.9 1.8-6.9a4 4 0 012.3 1.2zm60-2a8.57 8.57 0 00-2.3 3.5c-.9 3.2 3.6 7.7 6.8 6.8 4.7-1.5 6.1-6.1 2.7-9.5-2.3-2.3-4.9-2.6-7.2-.8zm6 2a4.19 4.19 0 011.2 2.4c0 1.4-2.7 4.4-4 4.4-1.1 0-4-2.9-4-4 0-1.3 3-4 4.4-4a4.19 4.19 0 012.4 1.2zM615 171c-3.2 3.2-2.5 6.6 1.9 9 2 1 2.7.9 5-.7 3.3-2.5 3.8-5.6 1.2-8.2s-5.5-2.7-8.1-.1zm6.4 1.6a4.7 4.7 0 011.6 2.4c0 1.1-2.9 4-4 4s-4-2.9-4-4 2.9-4 4-4a4.7 4.7 0 012.4 1.6zm87.3-1.8c-3.5 3.9-1 9.2 4.2 9.2 3.4 0 5.4-2.1 5.4-5.7 0-4.8-6.4-7.1-9.6-3.5zm6.8 3.7c0 2.7-.3 3-3 3-2.1 0-3.1-.5-3.3-1.8a3.81 3.81 0 014.2-4.5c1.6.2 2.1 1 2.1 3.3zm55.2-3.7c-3.5 3.8-1.3 9.2 3.6 9.2 4 0 5.7-1.5 5.7-5.1 0-5.3-5.9-7.9-9.3-4.1zm6.1 1.1c.8.4 1.2 1.9 1 3.2-.2 1.9-.9 2.4-3.3 2.4-3.3 0-4.5-2.5-2.5-5 1.4-1.7 2.9-1.9 4.8-.6zm59.2-.9c-2.4 2.4-2.5 3.8-.4 6.8 1.9 2.7 6.4 2.9 8.7.4 2.1-2.3 2.1-4.1.1-7s-5.7-2.9-8.4-.2zm7.1 1.6a2.33 2.33 0 01.2 3.2c-1.5 2.4-4.4 2.7-5.9.7-2.8-3.8 2.7-7.5 5.7-3.9zm54.5-1.4c-2.1 2.9-2 5.1.2 7.1 2.6 2.4 6.8 2.1 8.6-.5 2.1-3 2-4.4-.4-6.8-2.7-2.7-6.5-2.6-8.4.2zm7.4 1.9c2.3 4.1-3.8 6.8-6.3 2.7a2.33 2.33 0 01.2-3.2c1.9-2.2 4.8-2 6.1.5zm86.7-2.3c-2.1 2.3-2.1 4.1-.1 7 2.2 3.2 7.3 2.7 9.3-.9 1.3-2.4 1.3-2.9-.2-5.3a5.78 5.78 0 00-9-.8zm7.2 2.1c1.3 2.4-.8 5.5-3.4 5-2.8-.6-4.2-3.4-2.6-5.3 1.8-2.2 4.8-2 6 .3zm54.8-2.1c-3.5 3.8-.8 9.2 4.5 9.2 3.1 0 5.1-2.1 5.1-5.5a7.06 7.06 0 00-1.3-4c-1.7-2.1-6.3-1.9-8.3.3zm6.8 3.7c0 2.5-.4 3-2.4 3-3.2 0-4.9-2.8-3.1-5a4 4 0 013.4-1.3c1.6.2 2.1 1 2.1 3.3zm58.5-4a7 7 0 00-1.2 4c0 3.4 1.9 5.5 5.2 5.5a6.1 6.1 0 006-5.7c0-4.4-7.2-7.1-10-3.8zm7.1 2.1c1.7 2.1 0 4.9-3.2 4.9-2.4 0-3.6-2.3-2.5-5.1.7-1.9 4-1.8 5.7.2zm54.2-1c-1.5 2.4-1.5 2.9-.2 5.3 2.8 4.9 10.9 3.2 10.9-2.4 0-5.4-7.7-7.5-10.7-2.9zm7.8 1a2.33 2.33 0 01.2 3.2c-1.5 2.4-4.4 2.7-5.9.7-2.8-3.8 2.7-7.5 5.7-3.9z" transform="translate(-10.9 -10.13)"/></g></svg>