<svg id="tsukiusagi" xmlns="http://www.w3.org/2000/svg" viewBox="0 0 99.18 99.18"><defs><clipPath id="clip-path" transform="translate(-.44 -.38)"><circle id="circle-clip" cx="50.4" cy="50.08" r="49.61" fill="none"/></clipPath><style>.cls-4{fill:#ff8c8c;opacity:.5}</style></defs><circle id="moon-circle" cx="49.59" cy="49.59" r="49.09" fill="#606" stroke="#606" stroke-miterlimit="10"/><path id="moon-yellow" d="M68.22 84.91A48.06 48.06 0 0133.58 3.5a49.34 49.34 0 1055.55 76.58 47.74 47.74 0 01-20.91 4.83z" transform="translate(-.44 -.38)" fill="#ff0"/><circle id="crater6" class="cls-4" cx="69.04" cy="19.78" r="4.47"/><circle id="crater5" class="cls-4" cx="84.11" cy="40.85" r="2.95"/><circle id="crater4" class="cls-4" cx="68.75" cy="77.27" r="1.48"/><circle id="crater3" class="cls-4" cx="26.77" cy="45.07" r="2.95"/><circle id="crater2" class="cls-4" cx="64.55" cy="36.32" r="1.48"/><circle id="crater1" class="cls-4" cx="41.56" cy="12.66" r="2.19"/><g clip-path="url(#clip-path)" id="rabbit-clip"><path d="M17.76 14.11a2.84 2.84 0 00-.15.84 21.44 21.44 0 002.25 6 19.81 19.81 0 007.84 6.51c2.73 1.12 2.52.7-1.31-2.48-3.54-2.93-4.82-4.29-5.62-5.85s-1.61-4-1.42-4.14c.46-.47 6.83 2.45 9.17 4.23a9 9 0 013.83 5.87l.19 1.17v-1.4a5.36 5.36 0 00-.63-2.86c-1.27-2.64-3.56-4.63-8.07-7-2.34-1.21-2.58-1.28-4.21-1.28-1.36.02-1.76.09-1.87.39zM36.75 25a16.56 16.56 0 00-3.46 1h3.23c3.48-.14 5.47.19 7.36 1.12A32.88 32.88 0 0150 31.23a7.09 7.09 0 010 4.85c-.35.51-.35.58 0 .58.52 0 1.27-1.8 1.43-3.44a3.49 3.49 0 00-.3-2.17 5.1 5.1 0 00-3.23-2.27 3.89 3.89 0 01-2.06-1.17A11.09 11.09 0 0040.31 25a7.93 7.93 0 00-3.56 0zm-23.16 2.42a16.33 16.33 0 00-2.74 1c-2.29 1.15-5.17 4.47-5.17 6a1.84 1.84 0 00.59 1c1 1 3.86.77 7.34-.68 2.65-1.08 4.66-1.38 9.43-1.41a20.8 20.8 0 004-.18 37 37 0 00-7.86-.54A16.81 16.81 0 0013 34c-2.32 1-4.84 1.4-5.75 1s-.85-1.15.42-2.81c2.45-3.27 5.38-4.56 10.38-4.54A29.11 29.11 0 0126.83 29a4.86 4.86 0 001.66.37 21.64 21.64 0 00-5-1.64c-2.65-.61-7.98-.8-9.9-.31zm21.92 3.86a4 4 0 00-1 .75l-.53.59.6.39a2.65 2.65 0 002.41.4c.66-.35 1.17-1.87.73-2.15a3.19 3.19 0 00-2.21.02zm-6.81 5.45a6.72 6.72 0 003.3 5.15 5.49 5.49 0 002.95.51 6.36 6.36 0 003.46-.68 4.44 4.44 0 001.35-.77 6.5 6.5 0 00-1.49.26 10.4 10.4 0 01-5.29 0 7.07 7.07 0 01-3.46-3.77l-.91-1.87zm19.35.77a3.24 3.24 0 01-2.69 1.88c-1.76.28-1.76.53 0 .56 1.45 0 1.76-.07 2.36-.59a2.14 2.14 0 00.84-2.35c-.16-.27-.28-.17-.51.5zm-14.86 7.77c-.42 2.25-2.71 5.52-5.73 8.19A93.43 93.43 0 0120 59.24a20.42 20.42 0 00-6.78 9c-.84 2-1.68 5.12-1.38 5.12.12 0 .21-.14.21-.31A45.12 45.12 0 0115.63 66a24.76 24.76 0 016.1-6.11c7.35-4.93 12-10.76 11.74-14.64l-.07-1zm14.74.42a14.44 14.44 0 013.23 5.85 22.46 22.46 0 01.05 7.81c-.38 1.76-.31 2.08.21.84 2.43-5.82.79-12.6-3.72-15.36-1.13-.68-1.08-.57.23.86zM55 62.79a27.75 27.75 0 012.17 6.5 2.2 2.2 0 01-1.63 2.39 2.31 2.31 0 01-2.54-.47c-.61-.54-.7-.28-.19.47a3 3 0 003.3.66c2-.78 2.43-2.39 1.4-5.34-.61-1.71-2.43-5.07-2.76-5.07-.1 0 .01.39.25.86zm-5.95.42c1.67 6.34 1.69 6.44 1.1 8.31-.7 2.22-1.84 3.2-3.46 2.9a1.48 1.48 0 01-1.26-2.06c.12-.49.14-.8 0-.73A2.81 2.81 0 0045 73.9c.28.82 1.92 1.48 3.09 1.27 1.89-.35 3.32-3 3.11-5.88a17.25 17.25 0 00-1.94-6.1c-.32-.42-.32-.42-.21.02zm-21.61 3.84c0 .09.37.3.82.47a18.53 18.53 0 015.38 3.81c2.17 2.43 3.13 5.08 3.32 9.26.07 1.62.23 2.79.35 2.67a14.67 14.67 0 00.89-4.68 11.54 11.54 0 00-7.51-10.83c-1.4-.54-3.25-.94-3.25-.7zm16.02 4.84a7.32 7.32 0 00-2.94 3.21c-.4.77-.64 1.35-.52 1.31a40.37 40.37 0 004.28-4.68c0-.28 0-.28-.82.16zm-37.8 2.67a5.84 5.84 0 00-4.49 3.27C-.72 82.39 2.5 88.59 6.74 88.59c.89 0 2.45-.51 2.45-.79a3.69 3.69 0 00-1.14 0 3.67 3.67 0 01-3.54-1.26 8.53 8.53 0 01-2.33-7.81c.6-2.27 3-3.74 6.17-3.74.82 0 1.31-.1 1.17-.21-.33-.27-2.64-.41-3.86-.22zM42.55 77c-.3 3.28-1.1 5.36-2.76 7.26-.61.7-.63.81-.28.84s.33.07.16.14c-.81.3 0 .47 2.93.61 3.9.18 5.45.49 6.36 1.26l.7.58V87c0-.89-1.1-2-2.41-2.38a14.3 14.3 0 00-5.89.11c-.63.19-1.22.35-1.26.35a7.15 7.15 0 01.86-.65 6.68 6.68 0 002.2-8.26l-.45-1zm-5.99 10.17a18.82 18.82 0 00-2.34.51l-1 .31 2.46.18c5.8.42 7.79.82 8.82 1.76 1.17 1.1 1-.17-.21-1.31a5.34 5.34 0 00-1.81-1.06 16.56 16.56 0 00-5.92-.39zm-18.48 3.72c1.29.7 3 1 5.62 1a21.17 21.17 0 015.49.59 22.58 22.58 0 009.08.37 5.2 5.2 0 001.43-.44 15.91 15.91 0 00-3-.14 24.87 24.87 0 01-6.25-.7 25.72 25.72 0 00-7.48-.7 46.58 46.58 0 01-5-.19c-.68-.24-.68-.22.11.21z" transform="translate(-.44 -.38)" id="rabbit" opacity=".2"/></g></svg>