<svg data-name="レイヤー 1" xmlns="http://www.w3.org/2000/svg" viewBox="0 0 282.56 275.39"><path d="M200.4.52c-3.1 1.3-5.9 5.8-7.8 12.1-2.2 7.3-3.5 25.2-2.7 37 .7 9.2.7 9.3 1.3 4 .4-3 1.2-10.7 1.8-17s1.8-14.5 2.6-18.2c4.9-21.4 16-16.8 21.1 8.7 1.3 6.9 1.7 14.1 1.8 30.2 0 21.9.6 23.2 2.6 5.9 1.4-12.2.6-34.5-1.6-43.4-1.9-8.1-5.7-15.4-8.9-17.6s-7.5-2.8-10.2-1.7zm-65.9 48.5a23.35 23.35 0 00-7.2 5c-2.8 3-3.3 4.3-3.3 8.6 0 9.8 6.5 21.2 19.6 34.4 16.1 16.2 26.7 20.8 44.3 19l7.6-.7-10.3-1.3c-14.5-1.8-20.4-4.8-31-15.5-13.1-13.3-21-25-22.7-33.5-1.4-7.2 7.6-11.3 22.6-10 17.6 1.5 31 8.5 41.3 21.6a95.83 95.83 0 0114.1 27.3c2.3 8.2 2.9 6.5 1-2.9-5.2-25.1-20.6-43.8-41.4-50.5-8.7-2.8-28.6-3.7-34.6-1.5zm-59.7 19.6c-30.4 10.3-51.4 29.7-58.4 54-2.8 9.6-3.8 20.3-2.8 28.2.8 6.2.8 6.2 1.5-5.7 1.1-20.7 7.5-35.8 21.3-50.3 11-11.6 26.6-21.1 44.1-26.8 3.9-1.3 6.1-2.3 5-2.3s-5.9 1.3-10.7 2.9zm160.8 29.8c10.1 7.6 24.6 22.7 30.7 32 5.8 8.6 9.1 15.9 12.4 27.4 2.9 10.3 2.6 15.6-1.2 20.9-1.4 1.8-2.5 4-2.5 4.8 0 2.8-3.8 8-7.2 9.7a48.39 48.39 0 01-7.3 3l-4 1.3h3.3c7.3.2 14.6-5.3 15.8-11.8a15.69 15.69 0 012.9-6.1c7.9-8.6 3.9-31.1-8.8-50.3-6.5-9.7-20.9-24-31.4-30.9s-12-7-2.7 0zM8 108.42c-4.6 2.3-8 7.5-8 12.3 0 2.1.4 4.1 1 4.4s1-.7 1-2.5c0-5.8 4.4-11.5 11-14.4 3.2-1.4 3.3-1.5 1-1.6a16.09 16.09 0 00-6 1.8zm166.6 39.4c2.8 16.2 8.1 27.5 16.9 36.3 11.2 11.2 25.3 16.1 44 15.2 16.7-.8 17.8-2.2 1.7-2.3-12.2 0-14.6-.3-21.7-2.8-19.3-6.5-32.5-21.4-38.9-43.9-1.8-6.2-2.86-7.6-2-2.5zm53.2-2.5c-3.5.9-1.4 8.1 2.9 10.4 2.4 1.3 9.8 1.7 10.9.7.3-.3-.3-2.5-1.2-4.8-2.2-5.4-6.9-7.8-12.6-6.3zM124 181.72c-6.7 9.8-10.2 18.2-10.8 25.8-.7 10.1 2.1 14.3 20.8 31.3 9.3 8.4 12.3 11.9 15.5 17.7 4.5 8.4 8.7 12.4 16.3 15.9 10.9 5 19.8 3.7 26.6-3.9 6.4-7 4.6-14.9-4.5-19.5-6.9-3.4-7.1-3-1.1 2.2 6.5 5.6 7 9.3 2.1 14.9-9.2 10.5-28.8 3.8-36.8-12.7-2.1-4.4-6.7-9.1-24.3-25-10.7-9.7-13.4-14.5-12.4-22.5.8-6.6 4.8-16.6 9.9-24.6 4.9-7.6 3.9-7.3-1.3.4zm-68.9 40.1c-.2 11.7 5.9 21.3 15.1 24 6.6 1.9 19.6 1.6 23.5-.5 3.6-1.9 6.3-6.3 6.3-9.9 0-1.8-.5-1.4-1.9 1.8-2.5 5.5-5.9 6.8-16.4 6.2-15.2-.8-20.8-5.3-24.6-19.8l-2-7.5zm165.3-2.1c-3.7 3.9-14.8 9.4-22.1 11-8.8 1.9-9.1 3.3-.6 2.6 11-.9 21.5-6.3 24.9-12.8 2.14-4.2 1.3-4.5-2.2-.8zm9.34 6.4c2.3 1.6 4.3 8.3 4.3 14.3 0 5.8-2.5 7.6-10.5 7.4a53.38 53.38 0 01-8.7-.6c-1.3-.3-.7.2 1.2 1.1a35.31 35.31 0 009.6 2.1c5.4.4 6.4.1 9-2.1s2.9-3.2 2.8-7.5c-.1-6-2.9-13.8-5.4-15.2-2.94-1.5-4.74-1.2-2.3.5z" opacity=".9"/></svg>