<svg id="レイヤー_1" data-name="レイヤー 1" xmlns="http://www.w3.org/2000/svg" viewBox="0 0 245.59 339.31"><path d="M78.6,3.6A13.55,13.55,0,0,0,78,7.2c0,3.9,6.2,20.4,9.6,25.6,7.1,10.8,21.9,23.1,33.5,27.8s10.8,3-5.6-10.6c-15.1-12.5-20.6-18.3-24-25S84.6,8.1,85.4,7.3c2-2,29.2,10.5,39.2,18.1,9.5,7.1,15,15.6,16.4,25.1l.8,5,.1-6c.1-4.7-.5-7.3-2.8-12.2C133.7,26,123.9,17.5,104.6,7.5c-10-5.2-11-5.5-18-5.5C80.8,2,79.1,2.3,78.6,3.6Z" transform="translate(-5.33 -2)"/><path d="M159.8,50c-4.6.8-14.8,3.9-14.8,4.4,0,.2,6.2.1,13.8-.1,14.9-.6,23.4.8,31.5,4.8,8.5,4.3,24.6,15.1,26.3,17.7,2.5,3.6,2.4,17,0,20.7-1.5,2.2-1.5,2.5-.1,2.5,2.2,0,5.4-7.7,6.1-14.7.4-4.5.1-6.6-1.3-9.3-2.3-4.4-8.7-8.9-13.8-9.7-2.8-.4-5.4-1.9-8.8-5-5.9-5.5-15.2-9.9-23.7-11.2C167.7,48.9,166.5,48.9,159.8,50Z" transform="translate(-5.33 -2)"/><path d="M60.8,60.5A65.25,65.25,0,0,0,49.1,65C39.3,69.9,27,84.1,27,90.4c0,.9,1.1,2.8,2.5,4.1,4.3,4.4,16.5,3.3,31.4-2.9,11.3-4.6,19.9-5.9,40.3-6,10.3-.1,17.9-.4,16.9-.8-3.9-1.4-26-3-33.6-2.3-11.2.9-16.7,2.2-26.1,6.1-9.9,4.1-20.7,6-24.6,4.5-4.1-1.5-3.6-4.9,1.8-12,10.5-14,23-19.5,44.4-19.4a125,125,0,0,1,37.4,5.7c4.2,1.3,7.4,2,7.1,1.6-.7-1.1-10.9-4.4-21.5-7C91.8,59.2,69,58.4,60.8,60.5Z" transform="translate(-5.33 -2)"/><path d="M154.5,77a15.86,15.86,0,0,0-4.3,3.2l-2.3,2.5,2.6,1.7c3.5,2.3,7.9,3,10.3,1.7,2.8-1.5,5-8,3.1-9.2C162.2,75.8,157.2,75.9,154.5,77Z" transform="translate(-5.33 -2)"/><path d="M125.4,100.3c1.1,9.5,6.5,18,14,22,3.3,1.7,5.8,2.2,12.6,2.2,7.3,0,9.4-.4,14.8-2.9,3.4-1.6,6.1-3.1,5.8-3.3s-3.1.3-6.4,1.1c-7.4,2-18.2,2.1-22.6.2-5.9-2.5-10.8-7.7-14.8-16.1l-3.9-8Z" transform="translate(-5.33 -2)"/><path d="M208.1,103.6c-1.5,4.1-5.6,7-11.5,8-7.5,1.2-7.5,2.3.1,2.4,6.2,0,7.5-.3,10.1-2.5,3.3-2.7,4.9-7.4,3.5-10C209.6,100.3,209.1,100.7,208.1,103.6Z" transform="translate(-5.33 -2)"/><path d="M144.6,136.8c-1.8,9.6-11.6,23.6-24.5,35-6.6,5.9-14.4,11.9-32.1,24.7Q69.4,210,59,235.1c-3.6,8.7-7.2,21.9-5.9,21.9.5,0,.9-.6.9-1.3,0-2.1,10.9-23.4,15.5-30.2,6.1-9.2,16.7-19.7,26.1-26.1,31.4-21.1,51.4-46,50.2-62.6l-.3-4.3Z" transform="translate(-5.33 -2)"/><path d="M207.6,138.6a61.67,61.67,0,0,1,13.8,25c2,7.7,2.1,24.5.2,33.4-1.6,7.5-1.3,8.9.9,3.6,10.4-24.9,3.4-53.9-15.9-65.7C201.8,132,202,132.5,207.6,138.6Z" transform="translate(-5.33 -2)"/><path d="M237.9,211.7c3.8,7.6,9.1,23.5,9.3,27.8.3,5-1.7,7.9-7,10.2a9.85,9.85,0,0,1-10.9-2c-2.6-2.3-3-1.2-.8,2,2.5,3.6,8.9,4.8,14.1,2.8,8.6-3.3,10.4-10.2,6-22.8-2.6-7.3-10.4-21.7-11.8-21.7C236.3,208,236.8,209.7,237.9,211.7Z" transform="translate(-5.33 -2)"/><path d="M212.4,213.5c7.1,27.1,7.2,27.5,4.7,35.5-3,9.5-7.9,13.7-14.8,12.4-4.7-.9-6.7-4.2-5.4-8.8.5-2.1.6-3.4,0-3.1-1.6,1-2.6,6.9-1.7,9.7,1.2,3.5,8.2,6.3,13.2,5.4,8.1-1.5,14.2-12.9,13.3-25.1-.5-7.1-5.3-22.4-8.3-26.1C211.9,211.6,211.9,211.6,212.4,213.5Z" transform="translate(-5.33 -2)"/><path d="M120,229.9c0,.4,1.6,1.3,3.5,2,5.8,2,18,10.8,23,16.3,9.3,10.4,13.4,21.7,14.2,39.6.3,6.9,1,11.9,1.5,11.4,1.3-1.3,3.8-14.1,3.8-20a49.35,49.35,0,0,0-32.1-46.3C127.9,230.6,120,228.9,120,229.9Z" transform="translate(-5.33 -2)"/><path d="M188.5,250.6c-4.8,2.4-9.1,7.2-12.6,13.7-1.7,3.3-2.7,5.8-2.2,5.6,1.5-.6,18.3-18.9,18.3-20S192,248.7,188.5,250.6Z" transform="translate(-5.33 -2)"/><path d="M26.9,262c-8.8,1.5-16.3,6.9-19.2,14-8.1,19.5,5.7,46,23.8,46,3.8,0,10.5-2.2,10.5-3.4,0-.2-2.2-.1-4.9.2-7,.6-9.6-.3-15.1-5.4-8.6-8-12.9-22.6-10-33.4,2.6-9.7,13-16,26.4-16,3.5,0,5.6-.4,5-.9C42,261.8,32.1,261.2,26.9,262Z" transform="translate(-5.33 -2)"/><path d="M184.6,272.5c-1.3,14-4.7,22.9-11.8,31-2.6,3-2.7,3.5-1.2,3.6,1.1,0,1.4.3.7.6-3.5,1.3-.1,2,12.5,2.6,16.7.8,23.3,2.1,27.2,5.4l3,2.5v-3c0-3.8-4.7-8.5-10.3-10.2s-19-1.4-25.2.5c-2.7.8-5.2,1.5-5.4,1.5a32.66,32.66,0,0,1,3.7-2.8c11.1-7.4,15.1-22.5,9.4-35.3l-1.9-4.4Z" transform="translate(-5.33 -2)"/><path d="M159,315.9a87.27,87.27,0,0,0-10,2.2l-4.5,1.3,10.5.8c24.8,1.8,33.3,3.5,37.7,7.5,5,4.7,4.1-.7-.9-5.6a22.67,22.67,0,0,0-7.7-4.5C178.3,315.7,166.2,314.9,159,315.9Z" transform="translate(-5.33 -2)"/><path d="M80,331.8c5.5,3,12.7,4.2,24,4.1,8.2-.2,13.4.4,23.5,2.5,14.8,3.2,29.4,3.8,38.8,1.6,3.2-.7,6-1.6,6.1-1.9s-5.5-.6-12.7-.6a106.73,106.73,0,0,1-26.7-3c-12.2-2.7-15.2-3-32-3-10.2,0-19.8-.4-21.5-.8C76.6,329.9,76.6,330,80,331.8Z" transform="translate(-5.33 -2)"/></svg>