<svg xmlns="http://www.w3.org/2000/svg" viewBox="0 0 1222.54 187.87"><defs><style>.cls-1{opacity:1;}.cls-2{fill:#9f9dac;}.cls-3{fill:#fff;}</style></defs><g id="wheel" class="cls-1"><circle class="cls-2" cx="37.93" cy="160.94" r="25.82"/></g><g id="wheel2" class="cls-1"><circle class="cls-2" cx="102.59" cy="158.39" r="25.82"/></g><g id="wheel3" class="cls-1"><circle class="cls-2" cx="201.59" cy="158.39" r="25.82"/></g><g id="wheel3-2" data-name="wheel3" class="cls-1"><circle class="cls-2" cx="258.59" cy="158.39" r="25.82"/></g><g id="wheel4" class="cls-1"><circle class="cls-2" cx="317.59" cy="158.39" r="25.82"/></g><g id="wheel5" class="cls-1"><circle class="cls-2" cx="418.07" cy="163.91" r="21.3"/></g><g id="wheel6" class="cls-1"><circle class="cls-2" cx="480.64" cy="162.34" r="21.87"/></g><g id="wheel7" class="cls-1"><circle class="cls-2" cx="546.52" cy="164.32" r="20.89"/></g><g id="wheel8" class="cls-1"><circle class="cls-2" cx="607.24" cy="161.74" r="22.47"/></g><g id="wheel9" class="cls-1"><circle class="cls-2" cx="702.19" cy="161.79" r="23.42"/></g><g id="wheel10" class="cls-1"><circle class="cls-2" cx="764.83" cy="163.15" r="23.06"/></g><g id="wheel11" class="cls-1"><circle class="cls-2" cx="829.59" cy="161.39" r="23.06"/></g><g id="wheel12" class="cls-1"><circle class="cls-2" cx="892.59" cy="161.39" r="23.06"/></g><g id="wheel13" class="cls-1"><circle class="cls-2" cx="986.59" cy="162.39" r="23.06"/></g><g id="wheel14" class="cls-1"><circle class="cls-2" cx="1048.59" cy="160.39" r="23.06"/></g><g id="wheel15" class="cls-1"><circle class="cls-2" cx="1114.59" cy="163.39" r="23.06"/></g><g id="wheel16" class="cls-1"><circle class="cls-2" cx="1174.59" cy="161.39" r="23.06"/></g><g id="white-mini-window"><rect class="cls-3" x="278.84" y="47.99" width="39.41" height="51.64"/></g><g id="white-window1"><rect class="cls-3" x="388.92" y="49.35" width="239.19" height="66.59"/></g><g id="white-window2"><rect class="cls-3" x="673.28" y="48.07" width="239.19" height="66.59"/></g><g id="white-window3"><rect class="cls-3" x="957" y="49.09" width="239.19" height="66.59"/></g><g id="train"><path d="M72.5,11.2c-.2.7-1.4,4.7-2.5,8.7l-2.2,7.5L71,39.2c1.8,6.5,3,12.5,2.6,13.3-.4,1-1.9,1.5-5.1,1.5-4.1,0-4.5.2-4.5,2.5V59H32.3L23.7,77C18.9,86.8,15,95.1,15,95.4s5.4,4.7,12,10L38.9,115H269V49l-55.5-.2L158,48.5V59H109V56.5c0-2.3-.4-2.5-4.5-2.5H100V49.9c0-2.3,1.1-8.2,2.5-13.3l2.5-9.1L102.7,19l-2.3-8.5-13.7-.3C76.2,10,72.9,10.2,72.5,11.2Z" transform="translate(-10.9 -10.13)"/><path d="M390,98v51H365V101H336V62l21.3-.2,21.2-.3.3-6.8.3-6.7H271v69.8l-116.1-.2-116.2-.1L28.6,136.2,18.5,154.9l-3.8.1H10.9l.3,4.7.3,4.8,3.8-.1,3.7-.1v4.8c0,10.7,6.6,20.6,17.4,26.3,4,2.1,6.3,2.6,12.2,2.6,4.1,0,7.4-.4,7.4-.8s1.6-1.4,3.6-2.1c8.8-3.2,16.1-13.5,17.1-24.4l.5-6.2,3.5.1,3.4.1.4,5.7c.6,10.6,8.3,21.6,17.2,24.8,1.8.7,3.3,1.6,3.3,2,0,1,16.7,1.1,17.2,0a16.66,16.66,0,0,1,4.3-2.7,28.54,28.54,0,0,0,15.4-23.3l.6-6.3h40l.6,6.3a28.89,28.89,0,0,0,3.4,11.7c3,5.4,9.9,11.7,14.2,12.7,1.3.4,2.3,1,2.3,1.5s3.8.9,8.5.9,8.5-.4,8.5-.9,1-1.1,2.3-1.5c6.9-1.7,15.1-10.9,17.2-19.4l1.2-4.7.8,3.5c1.8,8.3,7.9,15.7,16.9,20.4,4.1,2.2,6.2,2.6,12.9,2.6,4.4,0,7.7-.3,7.4-.7s1-1.4,3.1-2.3c8.1-3.6,14.6-11.7,16.2-20,.7-3.7,1-3.3,2.9,3.7,1.5,5.5,8.9,13.6,14.6,16,2.5,1,4.5,2.1,4.5,2.5s3.9.8,8.7.8,8.3-.3,8-.6,1.5-1.7,4.1-2.9c9.4-4.3,16.2-15.3,16.2-25.9,0-4.1,0-4.1,3.6-4,2.8.2,3.8-.2,4.1-1.7.5-1.7,1.6-1.9,12.9-1.9,11.7,0,12.4.1,12.4,2s.7,2,9,2h9l-.7,2.7a27.06,27.06,0,0,0,1.7,16.8c2.3,4.8,8,10.2,11.8,11.1,1.2.4,2.2,1,2.2,1.5s3.2.9,7,.9c4,0,7-.4,7-1s.6-1,1.3-1c2.7,0,9.4-6.1,12.1-11.1,2.6-4.6,2.8-5.8,2.4-12.5l-.5-7.4H470l-.7,2.7c-1.3,4.7-.6,12.8,1.5,16.9A25.25,25.25,0,0,0,493.1,198c3.2,0,5.9-.4,5.9-.9s1.3-1.4,2.9-2.1c4.4-1.8,9.8-7.7,11.7-12.6,1.2-3.2,1.5-6.2,1.2-10.9l-.6-6.5h20.6l-.6,6.5c-.3,4.7,0,7.7,1.2,10.9,1.9,4.9,7.3,10.8,11.7,12.6,1.6.7,2.9,1.6,2.9,2.1s3.4.9,7.6.9,7.3-.4,7-.9.5-1.2,1.9-1.5c3.6-.9,9.3-6.3,11.7-11,2.2-4.3,2.9-11.9,1.5-16.8L579,165h17.7l-.5,7c-.4,6.1-.1,7.6,2.2,12.4,2.6,5.3,9.3,11.6,12.3,11.6.7,0,1.3.4,1.3,1s3.2,1,7.7,1c4.2,0,7.4-.3,7-.6s1.3-1.6,3.6-2.8A24.25,24.25,0,0,0,642,178.7c.6-2.9.9-6,.6-6.8s-.7-2.6-1-4.2c-.6-2.5-.4-2.7,2.9-2.7,2.8,0,3.5-.4,3.5-2,0-1.9.7-2,12.5-2s12.5.1,12.5,2,.7,2,9,2h9l-.6,2.8c-.3,1.5-.8,3.3-1,4.1-.9,2.8,1.7,11.9,4.6,15.8a25.34,25.34,0,0,0,7.7,6.4c2.7,1.3,5,2.7,5.1,3.1.5,1.1,12.2,1,12.2-.1,0-.5,1.2-1.2,2.6-1.5,3.9-1,11.1-8.3,13-13.2,1.2-3.2,1.5-6.2,1.2-10.9l-.6-6.5h17.5l-1,4.9c-2.7,13.8,9.5,28.1,24.1,28.1,2.9,0,5.2-.4,5.2-.9s1.2-1.2,2.6-1.5c3.9-1,11.1-8.3,13-13.2,1.2-3.2,1.5-6.2,1.2-10.9l-.6-6.5h20.6l-.5,6.4a30.89,30.89,0,0,0,.7,10.1c1.6,5,7.5,11.4,12.5,13.6s14,2.4,18.9.4c9.6-4,15.8-15.6,13.9-25.6l-1-4.9h17.5l-.5,6.4c-.7,7.9.8,12.6,5.6,17.9,12.7,14.1,36.2,7.8,40.1-10.8.6-2.8.9-5.8.6-6.6s-.7-2.6-1-4.1c-.6-2.6-.4-2.8,2.9-2.8,2.8,0,3.5-.4,3.5-2,0-1.9.7-2,12.4-2s12.4.1,12.9,2.1,1.2,2,9,1.7l8.4-.3-.5,6.8c-.6,8.7,1.4,14.2,7.2,19.5,16.9,15.6,43.1,0,38.3-22.8l-.7-3.5h18l-.7,3.5a23.36,23.36,0,0,0,6.9,22.7,22.71,22.71,0,0,0,31.4.1c5.8-5.3,7.8-10.8,7.2-19.5l-.5-6.8,10.6.2c8.1.2,10.5.5,10.2,1.5a26.19,26.19,0,0,0,.9,16.6c7.5,17.5,31.4,19,41.5,2.8,2.5-4.2,3-5.9,3-11.5a68.35,68.35,0,0,0-.5-7.9c-.4-1,1.5-1.4,8.2-1.5l8.7-.2-.6,5.7c-.9,8.4,1.1,14.3,6.6,19.8,9.7,9.6,23.8,9.4,33.5-.6,5.7-5.9,7.9-16.2,5-23.8-.5-1.2.1-1.4,3-.9,3.2.5,3.6.3,3.6-1.6s.5-2.1,7.9-2.1,8.1-.2,10-2.7c2.3-2.8,2-5.9-.7-8.1-1-.7-4.7-1.2-9.4-1.2H1214V47H956V149H931V47H673V149H648V47H390ZM322,81.5V95H304V68h18Zm126,10V113H412V71.1l15.3-.4c8.3-.1,16.4-.4,18-.5L448,70Zm62,0V113H474V71.1l15.3-.4c8.3-.1,16.4-.4,18-.5L510,70Zm58,0V113H532V71.1l14.8-.3c8.1-.2,16.2-.4,18-.6L568,70Zm58.3.3.2,21.2H590V71.1l15.3-.3c8.3-.2,16.5-.3,18-.3h2.8ZM731,91.5V113H695V71.1l5.8-.4c3.1-.2,11.2-.4,18-.5L731,70Zm58,0V113H753V71.1l5.8-.4c3.1-.2,11.2-.4,18-.5L789,70Zm62,0V113H815V71.1l5.8-.4c3.1-.2,11.2-.4,18-.5L851,70Zm58,0V113H873V71.1l5.8-.4c3.1-.2,11.2-.4,18-.5L909,70Zm105,0V113H978V70h36Zm59,0V113h-37V70h37Zm61,0V113h-36V70h36Zm59,0V113h-37V70h37ZM382,152.9c1.3,2.5,1.3,2.7-.6,4.5-1.1,1.2-3.6,1.6-9,1.6H365v-8h8C379.8,151,381.1,151.3,382,152.9Zm8,2.1c0,3.8-.1,4-3.2,4s-3.3-.2-3.3-4,.1-4,3.3-4S390,151.2,390,155Zm275-2.1c1.3,2.5,1.3,2.7-.6,4.5-1.1,1.2-3.6,1.6-9,1.6H648v-8h8C662.8,151,664.1,151.3,665,152.9Zm8,2.1c0,3.8-.1,4-3.2,4s-3.3-.2-3.3-4,.1-4,3.3-4S673,151.2,673,155Zm275-2.5c1,1.2,1,2.1.2,4-1.1,2.4-1.6,2.5-9.2,2.5h-8v-8h7.9C944.7,151,947.1,151.4,948,152.5Zm8,2.5c0,3.9-.1,4-3.5,4s-3.5-.2-2.5-2a3.63,3.63,0,0,0,0-4c-1-1.8-.8-2,2.5-2S956,151.1,956,155Zm275.4-1.8a2.85,2.85,0,0,1,0,3.5c-.9,1.4-2.8,1.9-9.3,2.1l-8.1.3v-8.2l8.1.3C1228.6,151.4,1230.5,151.9,1231.4,153.2ZM42.3,168a5.37,5.37,0,0,0,1.2,5c3.9,4.3,10.1.9,9.3-5l-.5-3H73v4.7a24.3,24.3,0,0,1-2.4,9.8c-10.5,22.1-42.3,18.1-47.7-6.1-1.8-8.2-1.6-8.4,10-8.4H43Zm8.7,1.5a2.88,2.88,0,0,1-2,3c-4.1,1.3-7-4.3-3.3-6.4A3.62,3.62,0,0,1,51,169.5Zm57-2.6c-1.4,2.7.6,7,3.6,7.7,4.7,1.2,9.3-4.6,6.4-8.1-1.1-1.3.2-1.5,10-1.5h11.3l-.6,5.5c-.7,6.6-4.9,14.8-9.4,18.2-16.4,12.6-41.2,1.2-41.3-19V165H98.5C108.7,165,109,165.1,108,166.9Zm8.6,1.3a3.49,3.49,0,0,1-4.5,4.3c-2.6-.8-2.9-5-.4-6.3C113.9,164.9,115.8,165.7,116.6,168.2Zm89.6-.2a6.09,6.09,0,0,0,1.3,5c3.9,4.3,10.1.9,9.3-5l-.5-3h21l-.6,6c-1.2,13.5-11.7,23-25.5,23S186,182.3,186,168.3V165h20.7Zm8.8.9c0,2.8-2.8,4.7-4.8,3.4-2.4-1.5-2.7-4.4-.7-5.9A3.43,3.43,0,0,1,215,168.9Zm49.2-.9c-.8,5.9,5.4,9.3,9.3,5a6.09,6.09,0,0,0,1.3-5l-.5-3H295v4.7c0,16.8-17.5,28.4-34.1,22.8-8.7-3-15.3-11.8-16.5-21.9l-.7-5.6h21Zm8.8.9c0,2.8-2.8,4.7-4.8,3.4-2.4-1.5-2.7-4.4-.7-5.9A3.43,3.43,0,0,1,273,168.9Zm50-2.4c-1.6,2-.5,6.2,2.1,7.6,4.8,2.5,10.3-2.5,7.9-7.2-1-1.8-.6-1.9,9.3-1.9,11.9,0,12.2.2,10.6,8.4-1.2,6.4-3.1,9.8-8.3,14.3a24.78,24.78,0,0,1-33.1.1c-5.6-4.9-8.5-10.9-8.5-17.6V165h10.6C322.9,165,324.1,165.2,323,166.5Zm8,1.5c1.8,3.3-3.1,6.5-5.8,3.8-1.6-1.6-1.5-3.3.3-5.2S329.6,165.5,331,168Zm117.9.1c4.5,13-6.5,26.8-20.5,25.7-12.8-1.1-21.8-14.7-17.4-26.2l1-2.6h35.8Zm62.1,1.1c4,14.7-10.8,28.6-25.4,23.8-10.2-3.3-16.3-15.7-12.6-25.4l1-2.6h35.9Zm65-1.6c1.6,4.1,1.1,11.2-1,15.3-3.8,7.6-11.4,11.7-20.1,10.9-11.5-1.1-20-13.4-16.9-24.7l1.1-4.1H575Zm62,0c2.3,6,.4,15.2-4.3,20.3-3.1,3.4-9.5,6.1-14.5,6.1-13.2,0-23.4-13.6-19.1-25.9l1.1-3.1H637Zm93.9.5c3.2,9.1-1.8,19.6-11.4,24-6.7,3.1-13.6,2.1-20.2-2.8-6-4.6-9-14.8-6.3-21.7l1-2.6h35.8Zm62.1,1.1c2,7.2-.3,14.2-6.4,19.6a19.18,19.18,0,0,1-24.4,1.2c-6.7-4.8-10-15.1-7.2-22.4l1-2.6h35.9Zm65-1.6c2.8,7.3-.5,17.6-7.2,22.4-14.7,10.7-35.5-3.4-30.8-20.8l1.1-4.2H858Zm62,0c3.7,9.7-2.4,21.6-12.9,25.2-14.6,5.1-30.1-10.2-25-24.7l1.1-3.1H920Zm94,0c2.6,6.7-.1,15.7-6.3,21.1a19.24,19.24,0,0,1-21.8,2.7c-3.7-1.9-8.5-7.6-9.9-11.9-1.1-3.5-.8-11.4.6-13.6.3-.5,8.6-.9,18.5-.9H1014Zm62.4,2.6c2.7,13.9-10.8,26.5-24.4,22.8-10.5-2.8-17.7-15.8-14-25.5l1-2.5,18.2.2,18.3.3Zm65-3c4.1,15.6-8.8,29.5-24,25.7-6.6-1.7-12.8-7.9-14.2-14.3a32.25,32.25,0,0,1-.7-6.4c.2-.9.6-2.9,1-4.5l.5-2.7h18.4C1141.6,165,1141.8,165,1142.4,167.2Zm62,0c2.3,8.7-1.1,18.4-8.1,22.8-5.9,3.8-10.3,4.4-16.7,2.6-10-2.9-16.3-13.7-13.6-23.5l1.1-4.1h18.3C1203.6,165,1203.8,165,1204.4,167.2Z" transform="translate(-10.9 -10.13)"/><path d="M377.5,154a1.84,1.84,0,0,0,.3,2.2,1,1,0,0,0,1.7-.2,1.84,1.84,0,0,0-.3-2.2A1,1,0,0,0,377.5,154Z" transform="translate(-10.9 -10.13)"/><path d="M660.5,154a1.84,1.84,0,0,0,.3,2.2,1,1,0,0,0,1.7-.2,1.84,1.84,0,0,0-.3-2.2A1,1,0,0,0,660.5,154Z" transform="translate(-10.9 -10.13)"/><path d="M943.5,154a1.84,1.84,0,0,0,.3,2.2,1,1,0,0,0,1.7-.2,1.84,1.84,0,0,0-.3-2.2A1,1,0,0,0,943.5,154Z" transform="translate(-10.9 -10.13)"/><path d="M1226.5,154c-.8,1.3.4,3.2,1.6,2.5s1.2-3.5,0-3.5A1.9,1.9,0,0,0,1226.5,154Z" transform="translate(-10.9 -10.13)"/><path d="M426.2,170.6c-2.8,1.9-2.9,5.7-.2,8.4,2.4,2.4,3.8,2.5,6.7.5s3.4-5.1,1.1-8S429.4,168.3,426.2,170.6Zm5.2,1c2,.8,2.1,4.8.2,6.3-3.3,2.8-7.4-2.7-4.4-5.7C428.6,170.8,429.2,170.8,431.4,171.6Z" transform="translate(-10.9 -10.13)"/><path d="M488.2,170.6a5.43,5.43,0,0,0,.4,9.1c2.4,1.5,2.9,1.5,5.3.2a5.89,5.89,0,0,0,1.5-9C493.3,168.6,491.2,168.5,488.2,170.6Zm5.6,1.6a3.53,3.53,0,0,1-4.1,5.7c-2.9-1.7-1.5-6.9,1.8-6.9A4,4,0,0,1,493.8,172.2Z" transform="translate(-10.9 -10.13)"/><path d="M553.8,170.2a8.57,8.57,0,0,0-2.3,3.5c-.9,3.2,3.6,7.7,6.8,6.8,4.7-1.5,6.1-6.1,2.7-9.5C558.7,168.7,556.1,168.4,553.8,170.2Zm6,2a4.19,4.19,0,0,1,1.2,2.4c0,1.4-2.7,4.4-4,4.4-1.1,0-4-2.9-4-4,0-1.3,3-4,4.4-4A4.19,4.19,0,0,1,559.8,172.2Z" transform="translate(-10.9 -10.13)"/><path d="M615,171c-3.2,3.2-2.5,6.6,1.9,9,2,1,2.7.9,5-.7,3.3-2.5,3.8-5.6,1.2-8.2S617.6,168.4,615,171Zm6.4,1.6A4.7,4.7,0,0,1,623,175c0,1.1-2.9,4-4,4s-4-2.9-4-4,2.9-4,4-4A4.7,4.7,0,0,1,621.4,172.6Z" transform="translate(-10.9 -10.13)"/><path d="M708.7,170.8c-3.5,3.9-1,9.2,4.2,9.2,3.4,0,5.4-2.1,5.4-5.7C718.3,169.5,711.9,167.2,708.7,170.8Zm6.8,3.7c0,2.7-.3,3-3,3-2.1,0-3.1-.5-3.3-1.8a3.81,3.81,0,0,1,4.2-4.5C715,171.4,715.5,172.2,715.5,174.5Z" transform="translate(-10.9 -10.13)"/><path d="M770.7,170.8c-3.5,3.8-1.3,9.2,3.6,9.2,4,0,5.7-1.5,5.7-5.1C780,169.6,774.1,167,770.7,170.8Zm6.1,1.1c.8.4,1.2,1.9,1,3.2-.2,1.9-.9,2.4-3.3,2.4-3.3,0-4.5-2.5-2.5-5C773.4,170.8,774.9,170.6,776.8,171.9Z" transform="translate(-10.9 -10.13)"/><path d="M836,171c-2.4,2.4-2.5,3.8-.4,6.8,1.9,2.7,6.4,2.9,8.7.4,2.1-2.3,2.1-4.1.1-7S838.7,168.3,836,171Zm7.1,1.6a2.33,2.33,0,0,1,.2,3.2c-1.5,2.4-4.4,2.7-5.9.7C834.6,172.7,840.1,169,843.1,172.6Z" transform="translate(-10.9 -10.13)"/><path d="M897.6,171.2c-2.1,2.9-2,5.1.2,7.1,2.6,2.4,6.8,2.1,8.6-.5,2.1-3,2-4.4-.4-6.8C903.3,168.3,899.5,168.4,897.6,171.2Zm7.4,1.9c2.3,4.1-3.8,6.8-6.3,2.7a2.33,2.33,0,0,1,.2-3.2C900.8,170.4,903.7,170.6,905,173.1Z" transform="translate(-10.9 -10.13)"/><path d="M991.7,170.8c-2.1,2.3-2.1,4.1-.1,7,2.2,3.2,7.3,2.7,9.3-.9,1.3-2.4,1.3-2.9-.2-5.3A5.78,5.78,0,0,0,991.7,170.8Zm7.2,2.1c1.3,2.4-.8,5.5-3.4,5-2.8-.6-4.2-3.4-2.6-5.3C994.7,170.4,997.7,170.6,998.9,172.9Z" transform="translate(-10.9 -10.13)"/><path d="M1053.7,170.8c-3.5,3.8-.8,9.2,4.5,9.2,3.1,0,5.1-2.1,5.1-5.5a7.06,7.06,0,0,0-1.3-4C1060.3,168.4,1055.7,168.6,1053.7,170.8Zm6.8,3.7c0,2.5-.4,3-2.4,3-3.2,0-4.9-2.8-3.1-5a4,4,0,0,1,3.4-1.3C1060,171.4,1060.5,172.2,1060.5,174.5Z" transform="translate(-10.9 -10.13)"/><path d="M1119,170.5a7,7,0,0,0-1.2,4c0,3.4,1.9,5.5,5.2,5.5a6.1,6.1,0,0,0,6-5.7C1129,169.9,1121.8,167.2,1119,170.5Zm7.1,2.1c1.7,2.1,0,4.9-3.2,4.9-2.4,0-3.6-2.3-2.5-5.1C1121.1,170.5,1124.4,170.6,1126.1,172.6Z" transform="translate(-10.9 -10.13)"/><path d="M1180.3,171.6c-1.5,2.4-1.5,2.9-.2,5.3,2.8,4.9,10.9,3.2,10.9-2.4C1191,169.1,1183.3,167,1180.3,171.6Zm7.8,1a2.33,2.33,0,0,1,.2,3.2c-1.5,2.4-4.4,2.7-5.9.7C1179.6,172.7,1185.1,169,1188.1,172.6Z" transform="translate(-10.9 -10.13)"/></g></svg>