<svg id="tsukiusagi" xmlns="http://www.w3.org/2000/svg" xmlns:xlink="http://www.w3.org/1999/xlink" viewBox="0 0 99.18 99.18"><defs><style>.cls-1{fill:none;}.cls-2{fill:#606;stroke:#606;stroke-miterlimit:10;}.cls-3{fill:#ff0;}.cls-4{fill:#ff8c8c;opacity:0.5;}.cls-5{clip-path:url(#clip-path);}.cls-6{opacity:0.2;}</style><clipPath id="clip-path" transform="translate(-0.44 -0.38)"><circle id="circle-clip" class="cls-1" cx="50.4" cy="50.08" r="49.61"/></clipPath></defs><circle id="moon-circle" class="cls-2" cx="49.59" cy="49.59" r="49.09"/><path id="moon-yellow" class="cls-3" d="M68.22,84.91A48.06,48.06,0,0,1,33.58,3.5,49.34,49.34,0,1,0,89.13,80.08,47.74,47.74,0,0,1,68.22,84.91Z" transform="translate(-0.44 -0.38)"/><circle id="crater6" class="cls-4" cx="69.04" cy="19.78" r="4.47"/><circle id="crater5" class="cls-4" cx="84.11" cy="40.85" r="2.95"/><circle id="crater4" class="cls-4" cx="68.75" cy="77.27" r="1.48"/><circle id="crater3" class="cls-4" cx="26.77" cy="45.07" r="2.95"/><circle id="crater2" class="cls-4" cx="64.55" cy="36.32" r="1.48"/><circle id="crater1" class="cls-4" cx="41.56" cy="12.66" r="2.19"/><g id="rabbit-clip"><g class="cls-5"><g id="rabbit" class="cls-6"><path d="M17.76,14.11a2.84,2.84,0,0,0-.15.84,21.44,21.44,0,0,0,2.25,6,19.81,19.81,0,0,0,7.84,6.51c2.73,1.12,2.52.7-1.31-2.48-3.54-2.93-4.82-4.29-5.62-5.85s-1.61-4-1.42-4.14c.46-.47,6.83,2.45,9.17,4.23a9,9,0,0,1,3.83,5.87l.19,1.17,0-1.4A5.36,5.36,0,0,0,31.91,22c-1.27-2.64-3.56-4.63-8.07-7-2.34-1.21-2.58-1.28-4.21-1.28C18.27,13.74,17.87,13.81,17.76,14.11Z" transform="translate(-0.44 -0.38)"/><path d="M36.75,25a16.56,16.56,0,0,0-3.46,1s1.45,0,3.23,0c3.48-.14,5.47.19,7.36,1.12A32.88,32.88,0,0,1,50,31.23a7.09,7.09,0,0,1,0,4.85c-.35.51-.35.58,0,.58.52,0,1.27-1.8,1.43-3.44a3.49,3.49,0,0,0-.3-2.17,5.1,5.1,0,0,0-3.23-2.27,3.89,3.89,0,0,1-2.06-1.17A11.09,11.09,0,0,0,40.31,25,7.93,7.93,0,0,0,36.75,25Z" transform="translate(-0.44 -0.38)"/><path d="M13.59,27.42a16.33,16.33,0,0,0-2.74,1c-2.29,1.15-5.17,4.47-5.17,6a1.84,1.84,0,0,0,.59,1c1,1,3.86.77,7.34-.68,2.65-1.08,4.66-1.38,9.43-1.41a20.8,20.8,0,0,0,4-.18,37,37,0,0,0-7.86-.54A16.81,16.81,0,0,0,13,34c-2.32,1-4.84,1.4-5.75,1s-.85-1.15.42-2.81c2.45-3.27,5.38-4.56,10.38-4.54A29.11,29.11,0,0,1,26.83,29a4.86,4.86,0,0,0,1.66.37,21.64,21.64,0,0,0-5-1.64C20.84,27.12,15.51,26.93,13.59,27.42Z" transform="translate(-0.44 -0.38)"/><path d="M35.51,31.28a4,4,0,0,0-1,.75l-.53.59.6.39a2.65,2.65,0,0,0,2.41.4c.66-.35,1.17-1.87.73-2.15A3.19,3.19,0,0,0,35.51,31.28Z" transform="translate(-0.44 -0.38)"/><path d="M28.7,36.73A6.72,6.72,0,0,0,32,41.88a5.49,5.49,0,0,0,2.95.51,6.36,6.36,0,0,0,3.46-.68,4.44,4.44,0,0,0,1.35-.77,6.5,6.5,0,0,0-1.49.26,10.4,10.4,0,0,1-5.29,0,7.07,7.07,0,0,1-3.46-3.77l-.91-1.87Z" transform="translate(-0.44 -0.38)"/><path d="M48.05,37.5a3.24,3.24,0,0,1-2.69,1.88c-1.76.28-1.76.53,0,.56,1.45,0,1.76-.07,2.36-.59A2.14,2.14,0,0,0,48.56,37C48.4,36.73,48.28,36.83,48.05,37.5Z" transform="translate(-0.44 -0.38)"/><path d="M33.19,45.27c-.42,2.25-2.71,5.52-5.73,8.19A93.43,93.43,0,0,1,20,59.24a20.42,20.42,0,0,0-6.78,9c-.84,2-1.68,5.12-1.38,5.12.12,0,.21-.14.21-.31A45.12,45.12,0,0,1,15.63,66a24.76,24.76,0,0,1,6.1-6.11c7.35-4.93,12-10.76,11.74-14.64l-.07-1Z" transform="translate(-0.44 -0.38)"/><path d="M47.93,45.69a14.44,14.44,0,0,1,3.23,5.85,22.46,22.46,0,0,1,.05,7.81c-.38,1.76-.31,2.08.21.84,2.43-5.82.79-12.6-3.72-15.36C46.57,44.15,46.62,44.26,47.93,45.69Z" transform="translate(-0.44 -0.38)"/><path d="M55,62.79a27.75,27.75,0,0,1,2.17,6.5,2.2,2.2,0,0,1-1.63,2.39A2.31,2.31,0,0,1,53,71.21c-.61-.54-.7-.28-.19.47a3,3,0,0,0,3.3.66c2-.78,2.43-2.39,1.4-5.34-.61-1.71-2.43-5.07-2.76-5.07C54.65,61.93,54.76,62.32,55,62.79Z" transform="translate(-0.44 -0.38)"/><path d="M49.05,63.21c1.67,6.34,1.69,6.44,1.1,8.31-.7,2.22-1.84,3.2-3.46,2.9a1.48,1.48,0,0,1-1.26-2.06c.12-.49.14-.8,0-.73A2.81,2.81,0,0,0,45,73.9c.28.82,1.92,1.48,3.09,1.27,1.89-.35,3.32-3,3.11-5.88a17.25,17.25,0,0,0-1.94-6.1C48.94,62.77,48.94,62.77,49.05,63.21Z" transform="translate(-0.44 -0.38)"/><path d="M27.44,67.05c0,.09.37.3.82.47a18.53,18.53,0,0,1,5.38,3.81c2.17,2.43,3.13,5.08,3.32,9.26.07,1.62.23,2.79.35,2.67a14.67,14.67,0,0,0,.89-4.68,11.54,11.54,0,0,0-7.51-10.83C29.29,67.21,27.44,66.81,27.44,67.05Z" transform="translate(-0.44 -0.38)"/><path d="M43.46,71.89a7.32,7.32,0,0,0-2.94,3.21c-.4.77-.64,1.35-.52,1.31a40.37,40.37,0,0,0,4.28-4.68C44.28,71.45,44.28,71.45,43.46,71.89Z" transform="translate(-0.44 -0.38)"/><path d="M5.66,74.56a5.84,5.84,0,0,0-4.49,3.27C-.72,82.39,2.5,88.59,6.74,88.59c.89,0,2.45-.51,2.45-.79a3.69,3.69,0,0,0-1.14,0,3.67,3.67,0,0,1-3.54-1.26,8.53,8.53,0,0,1-2.33-7.81c.6-2.27,3-3.74,6.17-3.74.82,0,1.31-.1,1.17-.21C9.19,74.51,6.88,74.37,5.66,74.56Z" transform="translate(-0.44 -0.38)"/><path d="M42.55,77c-.3,3.28-1.1,5.36-2.76,7.26-.61.7-.63.81-.28.84s.33.07.16.14c-.81.3,0,.47,2.93.61,3.9.18,5.45.49,6.36,1.26l.7.58V87c0-.89-1.1-2-2.41-2.38a14.3,14.3,0,0,0-5.89.11c-.63.19-1.22.35-1.26.35a7.15,7.15,0,0,1,.86-.65,6.68,6.68,0,0,0,2.2-8.26l-.45-1Z" transform="translate(-0.44 -0.38)"/><path d="M36.56,87.17a18.82,18.82,0,0,0-2.34.51l-1,.31,2.46.18c5.8.42,7.79.82,8.82,1.76,1.17,1.1,1-.17-.21-1.31a5.34,5.34,0,0,0-1.81-1.06A16.56,16.56,0,0,0,36.56,87.17Z" transform="translate(-0.44 -0.38)"/><path d="M18.08,90.89c1.29.7,3,1,5.62,1a21.17,21.17,0,0,1,5.49.59,22.58,22.58,0,0,0,9.08.37,5.2,5.2,0,0,0,1.43-.44,15.91,15.91,0,0,0-3-.14,24.87,24.87,0,0,1-6.25-.7,25.72,25.72,0,0,0-7.48-.7,46.58,46.58,0,0,1-5-.19C17.29,90.44,17.29,90.46,18.08,90.89Z" transform="translate(-0.44 -0.38)"/></g></g></g></svg>